<mxfile host="app.diagrams.net" modified="2023-08-24T23:18:02.620Z" agent="Mozilla/5.0 (Windows NT 10.0; Win64; x64) AppleWebKit/537.36 (KHTML, like Gecko) Chrome/116.0.0.0 Safari/537.36" version="21.6.9" etag="q8L6G_JifYl7UbrWU4-m" type="github">
  <diagram name="PÃ¡gina-1" id="mQ2IkjzYg5-v2ucUOaXP">
    <mxGraphModel>
      <root>
        <mxCell id="0" />
        <mxCell id="1" parent="0" />
      </root>
    </mxGraphModel>
  </diagram>
</mxfile>
